<svg width="618" height="373" viewBox="0 0 618 373" fill="none" xmlns="http://www.w3.org/2000/svg">
<path d="M10 72V324C10 348.853 30.1472 369 55 369H562.5C587.353 369 607.5 348.853 607.5 324V101C607.5 76.1472 587.353 56 562.5 56H269C260.992 56 254.5 49.5081 254.5 41.5C254.5 33.4919 248.008 27 240 27H55C30.1472 27 10 47.1472 10 72Z" fill="black" stroke="black"/>
<path d="M10 55V318C10 342.853 30.1472 363 55 363H562.5C587.353 363 607.5 342.853 607.5 318V95C607.5 70.1472 587.353 50 562.5 50H274.5C263.454 50 254.5 41.0457 254.5 30C254.5 18.9543 245.546 10 234.5 10H55C30.1472 10 10 30.1472 10 55Z" fill="#F3F3F3" stroke="black"/>
</svg>
