<svg width="389" height="389" viewBox="0 0 389 389" fill="none" xmlns="http://www.w3.org/2000/svg">
<path d="M173.47 387.446C166.274 389.726 158.051 385.208 155.19 377.375L110.675 256.477L136.687 248.229L181.247 369.293C184.108 377.043 180.621 385.167 173.47 387.446Z" fill="black"/>
<path d="M169.581 388.938C167.481 388.938 165.335 388.482 163.279 387.529C159.123 385.622 155.815 382.058 154.206 377.664L109.691 256.767C109.512 256.311 109.78 255.772 110.317 255.606L136.329 247.359C136.597 247.276 136.865 247.276 137.089 247.4C137.312 247.524 137.491 247.69 137.58 247.939L182.14 369.002C185.135 377.209 181.381 385.871 173.738 388.316C172.442 388.731 171.011 388.938 169.581 388.938ZM111.926 257.057L156.128 377.084C157.558 381.022 160.508 384.254 164.173 385.912C167.123 387.238 170.296 387.487 173.157 386.575C179.772 384.462 182.99 376.836 180.308 369.582L136.061 249.389L111.926 257.057Z" fill="black"/>
<path d="M132.083 143.868L47.9241 199.529L15.1632 231.07L2.29121 252.166L2.24652 252.331C-0.301056 255.979 1.17386 264.392 5.95614 272.972C10.649 281.426 17.2638 287.312 21.912 287.643L21.7779 287.726L46.4939 290.213L92.7524 283.374L190.946 250.798L313.006 270.195L313.855 270.236C283.195 264.931 241.808 226.925 211.729 173.17C181.694 119.456 172.129 66.3637 185.314 40.1699H185.27L132.754 142.541L132.083 143.868Z" fill="#B9FF66"/>
<path d="M334.14 267.896C364.306 253.368 358.473 187.509 321.111 120.796C283.75 54.0817 229.008 11.7761 198.842 26.3034C168.676 40.8307 174.509 106.69 211.871 173.404C249.232 240.117 303.974 282.423 334.14 267.896Z" fill="white"/>
<path d="M320.873 271.686C307.733 271.686 291.911 264.889 274.882 251.668C251.686 233.68 228.937 205.953 210.835 173.542C183.438 124.47 172.13 74.1548 182.052 45.35C185.36 35.7345 190.902 29.0203 198.455 25.4145C213.472 18.2858 234.613 24.3369 258.033 42.4902C281.229 60.4777 303.978 88.205 322.08 120.616C349.522 169.688 360.829 220.003 350.863 248.808C347.555 258.423 342.013 265.138 334.46 268.743C330.393 270.733 325.834 271.686 320.873 271.686ZM212.132 24.3369C207.528 24.3369 203.237 25.2073 199.394 27.0723C192.287 30.4294 187.103 36.8121 183.974 45.9716C174.186 74.3621 185.449 124.139 212.623 172.796C249.63 238.985 303.889 281.343 333.611 267.21C340.717 263.853 345.902 257.47 349.03 248.311C358.818 219.92 347.555 170.144 320.381 121.486C288.157 63.8763 242.926 24.3369 212.132 24.3369Z" fill="black"/>
<path d="M320.873 271.687C307.733 271.687 291.911 264.89 274.882 251.669C251.686 233.681 228.937 205.954 210.835 173.543C183.438 124.472 172.13 74.1562 182.052 45.3513C185.36 35.7359 190.902 29.0216 198.455 25.4158C208.511 20.6081 221.652 21.81 236.445 28.8559C250.613 35.6115 265.944 47.5894 280.871 63.4632C281.229 63.8362 281.184 64.4164 280.782 64.748C280.38 65.0796 279.754 65.0381 279.397 64.6651C249.094 32.4202 218.434 17.997 199.394 27.0737C192.287 30.4308 187.103 36.8135 183.974 45.973C174.186 74.3634 185.449 124.14 212.623 172.797C244.803 230.366 290.078 269.947 320.828 269.947C325.432 269.947 329.722 269.076 333.566 267.211C340.672 263.854 345.857 257.471 348.985 248.312C358.774 219.921 347.511 170.145 320.336 121.487C312.247 106.981 303.129 93.3457 293.341 80.9533C293.028 80.5389 293.118 79.9586 293.565 79.6685C294.012 79.3784 294.637 79.4613 294.95 79.8757C304.828 92.351 313.945 106.07 322.124 120.659C349.522 169.689 360.829 220.004 350.863 248.809C347.555 258.425 342.013 265.139 334.46 268.745C330.393 270.734 325.834 271.687 320.873 271.687Z" fill="black"/>
<path d="M265.694 182.971C272.683 179.606 271.339 164.361 262.692 148.922C254.046 133.483 241.371 123.695 234.383 127.061C227.395 130.426 228.739 145.67 237.385 161.11C246.032 176.549 258.706 186.337 265.694 182.971Z" fill="#B9FF66"/>
<path d="M262.635 184.569C254.948 184.569 244.221 175.368 236.489 161.483C230.053 149.961 227.416 138.108 229.785 131.269C230.634 128.865 232.02 127.166 233.942 126.254C241.54 122.648 254.546 132.471 263.574 148.594C270.01 160.115 272.647 171.969 270.278 178.808C269.429 181.211 268.043 182.911 266.122 183.823C265.049 184.32 263.887 184.569 262.635 184.569ZM237.428 127.29C236.489 127.29 235.595 127.456 234.836 127.829C233.361 128.534 232.288 129.86 231.618 131.808C229.428 138.191 231.975 149.547 238.188 160.654C246.411 175.368 258.792 185.273 265.183 182.206C266.658 181.502 267.731 180.175 268.401 178.227C270.591 171.803 267.999 160.488 261.831 149.381C254.59 136.491 244.221 127.29 237.428 127.29Z" fill="#B9FF66"/>
<path d="M314.079 256.227C302.547 256.227 288.692 250.259 273.764 238.696C253.473 222.946 233.539 198.659 217.718 170.31C193.717 127.372 183.839 83.3151 192.51 58.0746C195.415 49.6196 200.287 43.7343 206.946 40.5429C222.232 33.2899 244.713 41.662 268.669 63.504C269.071 63.877 269.071 64.4158 268.669 64.7888C268.267 65.1618 267.686 65.1618 267.284 64.7888C243.953 43.5271 222.276 35.2379 207.84 42.1593C201.672 45.102 197.158 50.6143 194.387 58.6134C185.851 83.398 195.683 126.916 219.461 169.481C247.573 219.838 287.128 254.404 314.034 254.404C318.056 254.404 321.766 253.616 325.163 252.041C331.331 249.099 335.845 243.586 338.616 235.587C347.152 210.803 337.32 167.284 313.542 124.72C306.346 111.871 298.301 99.8106 289.631 88.9103C289.318 88.4958 289.407 87.9156 289.854 87.6255C290.301 87.3354 290.927 87.4183 291.24 87.8327C300 98.8573 308.09 110.96 315.33 123.891C339.331 166.829 349.208 210.886 340.538 236.126C337.632 244.581 332.761 250.466 326.101 253.658C322.436 255.357 318.414 256.227 314.079 256.227Z" fill="black"/>
<path d="M46.5386 291.085C46.4939 291.085 46.4492 291.085 46.4492 291.085L21.7333 288.598C21.5992 288.598 21.4651 288.557 21.3311 288.474C16.2359 287.728 9.79993 281.759 5.10703 273.387C0.101274 264.559 -1.37364 255.939 1.35271 251.877L1.39741 251.753L14.2694 230.615C14.3141 230.532 14.3587 230.491 14.4034 230.449L47.1644 198.909C47.209 198.868 47.2537 198.826 47.2984 198.785L131.234 143.247L184.331 39.7568C184.465 39.5496 184.644 39.3838 184.912 39.3009C185.18 39.218 185.448 39.218 185.672 39.3424C186.164 39.5496 186.387 40.0884 186.164 40.5443C172.711 67.2769 183.348 120.411 212.578 172.715C241.853 225.103 282.659 263.896 314.079 269.243C314.57 269.326 314.928 269.74 314.883 270.237C314.838 270.693 314.391 271.025 313.9 271.066L313.051 271.025C313.006 271.025 312.961 271.025 312.917 271.025L191.08 251.67L93.1101 284.163C93.0654 284.163 92.976 284.205 92.9313 284.205L46.6727 291.043C46.628 291.085 46.5833 291.085 46.5386 291.085ZM22.4484 286.857L46.5386 289.261L92.5737 282.423L190.722 249.888C190.901 249.846 191.035 249.805 191.214 249.846L300.894 267.253C271.261 255.193 236.623 219.591 210.924 173.586C185.404 127.912 174.007 81.5343 180.264 52.2321L132.977 144.242C132.888 144.366 132.799 144.491 132.665 144.574L48.5946 200.235L15.9677 231.61L3.09579 252.747C3.09579 252.789 3.0511 252.83 3.0511 252.83C0.726994 256.187 2.29129 264.476 6.80542 272.558C11.2302 280.475 17.6214 286.443 22.0015 286.733C22.1802 286.733 22.3143 286.774 22.4484 286.857Z" fill="black"/>
<path d="M132.216 143.536L185.268 40.1289H185.313C172.128 66.3227 181.737 119.415 211.727 173.129C241.807 226.926 283.193 264.931 313.943 270.154L313.094 270.112L191.213 250.757L188.397 250.301C174.229 247.98 155.323 230.904 141.781 206.534C127.881 181.542 125.423 156.633 131.59 144.78L132.216 143.536Z" fill="white"/>
<path d="M313.943 271.066C313.943 271.066 313.898 271.066 313.943 271.066L313.049 271.024C313.004 271.024 312.959 271.024 312.915 271.024L191.033 251.669L188.218 251.213C173.245 248.768 154.25 230.988 140.886 206.991C125.735 179.719 124.975 155.432 130.696 144.407L131.366 143.164L184.419 39.7979C184.553 39.5906 184.731 39.4248 185 39.3419C185.268 39.2591 185.536 39.2591 185.759 39.3834C186.251 39.5906 186.475 40.1294 186.251 40.5853C172.798 67.3179 183.435 120.452 212.665 172.756C241.94 225.144 282.746 263.937 314.166 269.284C314.658 269.367 315.015 269.781 314.971 270.278C314.837 270.693 314.434 271.066 313.943 271.066ZM180.173 52.2316L133.11 143.951L132.439 145.195C126.763 156.136 128.417 180.59 142.629 206.12C155.725 229.661 174.184 247.069 188.575 249.39L191.391 249.846L300.847 267.253C271.215 255.192 236.577 219.59 210.878 173.585C185.357 127.912 173.96 81.5339 180.173 52.2316Z" fill="black"/>
<path d="M45.1975 290.96C45.1528 290.96 45.1081 290.96 45.1081 290.96L21.6883 288.639C21.5542 288.639 21.4202 288.598 21.2861 288.515C16.1909 287.769 9.75495 281.8 5.06205 273.428C0.10098 264.559 -1.37393 255.938 1.35242 251.876L1.39711 251.752L14.2691 230.615C14.5372 230.159 15.1183 230.034 15.6099 230.283C16.1015 230.532 16.2356 231.071 15.9675 231.527L3.0955 252.747C3.0955 252.788 3.0508 252.83 3.0508 252.83C0.726701 256.187 2.291 264.476 6.80512 272.558C11.2299 280.474 17.6211 286.442 22.0012 286.732C22.1353 286.732 22.314 286.774 22.4034 286.857L45.2869 289.136C45.8232 289.178 46.2255 289.634 46.1361 290.131C46.0914 290.587 45.6891 290.96 45.1975 290.96Z" fill="black"/>
<path d="M46.762 290.049C39.164 289.551 28.5268 279.563 20.7946 265.761C12.6156 251.131 10.6937 236.003 15.6995 230.615L2.33591 252.167L2.24652 252.333C-0.301056 255.98 1.17386 264.394 5.95614 272.973C10.649 281.428 17.2638 287.313 21.912 287.645L21.7779 287.728L46.762 290.049Z" fill="white"/>
<path d="M46.7618 290.96C46.7171 290.96 46.7171 290.96 46.6724 290.96C46.4936 290.96 46.2702 290.918 46.0914 290.918L21.6883 288.639C21.5542 288.639 21.4202 288.597 21.2861 288.514C16.1909 287.768 9.75494 281.8 5.06205 273.428C0.10098 264.559 -1.37393 255.938 1.35242 251.876L1.39711 251.752L13.1517 232.77C13.5987 231.692 14.1797 230.739 14.8948 229.951C15.2076 229.578 15.7887 229.537 16.1909 229.786C16.5932 230.076 16.7273 230.573 16.4591 230.988L14.8054 233.599C12.1684 240.189 14.7607 253.12 21.5542 265.222C28.9288 278.443 38.985 288.1 46.1808 288.97L46.7171 289.012C47.2534 289.053 47.6557 289.509 47.611 290.007C47.6557 290.587 47.2534 290.96 46.7618 290.96ZM22.4034 286.857L39.4766 288.473C32.9066 284.577 25.6661 276.537 19.9005 266.175C14.3138 256.187 11.5427 245.825 11.9897 238.365L3.0955 252.747C3.0955 252.788 3.0508 252.83 3.0508 252.83C0.726701 256.187 2.291 264.476 6.80512 272.558C11.2299 280.474 17.6211 286.442 22.0012 286.732C22.1353 286.732 22.314 286.774 22.4034 286.857Z" fill="black"/>
<path d="M91.0976 283.541L93.0641 283.168C82.4269 285.24 65.6218 270.32 53.7778 249.141C41.6657 227.506 39.3863 205.913 47.9676 199.53L46.8502 200.566L15.7877 230.49C10.6926 235.795 12.5697 251.006 20.7935 265.719C28.7043 279.894 39.9226 290.007 47.5653 289.965L91.0976 283.541Z" fill="black"/>
<path d="M47.5221 290.919C39.3878 290.919 28.0801 280.764 19.9011 266.175C11.5879 251.255 9.48728 235.671 15.0294 229.91L45.5109 200.567C46.0472 199.903 46.6729 199.323 47.3433 198.826C47.7456 198.536 48.3266 198.577 48.6842 198.909C49.0417 199.282 49.0417 199.821 48.6842 200.152L46.9411 201.851C40.7286 209.56 43.8125 229.289 54.6732 248.727C66.3831 269.698 82.7412 284.08 92.7527 282.339L92.8868 282.298C93.4231 282.215 93.9148 282.505 94.0489 283.002C94.1382 283.5 93.8254 283.956 93.2891 284.08C93.2444 284.08 93.1997 284.08 93.155 284.121L91.3225 284.453H91.2778L47.7456 290.877C47.6562 290.877 47.5668 290.919 47.5221 290.919ZM42.9186 205.706L16.5043 231.154C11.5879 236.293 13.8226 251.296 21.6888 265.347C29.3762 279.107 40.2369 289.054 47.5221 289.095L85.9592 283.417C75.5901 280.018 62.8076 267.212 52.9301 249.597C43.5443 232.811 39.9241 215.736 42.9186 205.706Z" fill="black"/>
<path d="M234.39 127.042C227.373 130.358 228.401 145.734 237.339 161.069C252.312 186.724 264.245 183.699 265.631 183.243C265.676 183.243 265.676 183.284 265.631 183.284L239.932 202.474C232.378 192.651 225.183 181.709 218.568 169.897C212.266 158.582 206.947 147.309 202.746 136.367L234.39 127.042Z" fill="black"/>
<path d="M239.931 203.385C239.886 203.385 239.841 203.385 239.797 203.385C239.529 203.344 239.305 203.219 239.126 203.012C231.394 192.941 224.198 181.916 217.718 170.353C211.505 159.245 206.142 147.93 201.851 136.74C201.762 136.491 201.762 136.243 201.896 136.036C202.03 135.828 202.209 135.663 202.477 135.58L234.121 126.254C234.612 126.13 235.149 126.337 235.327 126.793C235.506 127.249 235.327 127.746 234.88 127.954C233.361 128.658 232.243 130.067 231.573 132.14C229.383 138.647 232.065 150.169 238.277 160.737C252.892 185.771 264.155 182.911 265.362 182.496C265.809 182.331 266.345 182.538 266.569 182.911C266.792 183.284 266.703 183.823 266.345 184.113L240.557 203.178C240.378 203.302 240.154 203.385 239.931 203.385ZM204.041 136.947C208.287 147.765 213.472 158.706 219.461 169.482C225.718 180.673 232.69 191.324 240.154 201.147L262.457 184.486C257.362 184.279 247.752 180.756 236.489 161.483C229.964 150.334 227.282 138.564 229.651 131.476C229.964 130.565 230.322 129.777 230.769 129.031L204.041 136.947Z" fill="black"/>
</svg>
